/* XPM */
static char *d6fe6ce0ff04433389b357c870394b42IHbSAJo01hLDWWzM[] = {
/* columns rows colors chars-per-pixel */
"64 64 8 1 ",
"  c #EA3D3D",
". c #EB6464",
"X c #EE8585",
"o c #F2AAAA",
"O c #F5BFBF",
"+ c #F7D0D0",
"@ c #FBE9E9",
"# c white",
/* pixels */
"################################################################",
"################################################################",
"################################################################",
"################################################################",
"################################################################",
"################################################################",
"################################################################",
"################################################################",
"##########@++++@################################################",
"##########      #######O    O############+oooo+#################",
"##########      #######      ###########           #############",
"##########     +#######      ##########      +      ############",
"##########     +#######      #########     +###     ############",
"##########     ########      ########      ####      ###########",
"#########+     ########      ########     #####      ###########",
"#########+     ########      #######      #####      ###########",
"#########      ########     +######@    X######      ###########",
"#########      ########     #######@    X######      ###########",
"#########     +########     ###################     +###########",
"#########     ########+     ###################     ############",
"########      ########      ##################      ############",
"########      ########      ##################     +############",
"########     #########      #################+     #############",
"#######+     #########     +#################     +#############",
"#######             ..     +################+     ##############",
"########                   +################     +##############",
"######################     ################      ###############",
"######################     ################     ################",
"#####################+     ###############     +################",
"#####################+     ##############      #################",
"#####################      #############+     ##################",
"#####################      #############     +##################",
"#####################      ############      ###################",
"#####################      ############     ####################",
"#####################     +###########      ####################",
"#####################     ############      ####################",
"####################+     ############     #####################",
"####################      ###########      #####################",
"####################      ###########      #####################",
"####################      ###########     +#####################",
"####################      ##########+     ######################",
"####################      ##########     +######################",
"####################      #########+     #######################",
"####################      #########     +#######################",
"####################      ########      ########################",
"####################      ########     #########################",
"####################      #######      #########################",
"####################      #######     +#########################",
"####################     +#######     ##########################",
"####################     #######+      o+#######################",
"####################     #########                  ############",
"###################+     #######################################",
"################################################################",
"################################################################",
"################################################################",
"################################################################",
"################################################################",
"################################################################",
"################################################################",
"################################################################",
"################################################################",
"################################################################",
"################################################################",
"################################################################"
};
