/* XPM */
static char *a925f80f7866432ab1931d1812c5cc77bSI92kLwnoqY7ZfD[] = {
/* columns rows colors chars-per-pixel */
"16 16 8 1 ",
"  c #777922",
". c #7E625E",
"X c #8C7168",
"o c #92766D",
"O c #947B6E",
"+ c #898B23",
"@ c #9D8275",
"# c #A9917E",
/* pixels */
"oooooo ..+oooooo",
"####+# .o+###O##",
"@@@@   .o+@@@@@@",
"@@@@@@@.o++++++@",
"@@o@@@@.o+.... @",
"@@@@@@@. +@@@@ @",
"++++++++++@@@@ +",
"  +       ....  ",
"..+ ......oooo..",
"o@+ @##########.",
"o#+ @@@@@@@@@@@.",
"o#     @@@@@@@@.",
"o#.... @@@@ @@@.",
"o#@@@@ @@+  @@@.",
"oO@@@@ @o+X@@@o.",
"...... ..+......"
};
